<?xml version="1.0" encoding="UTF-8"?>
<svg id="Cyber_Keepers_1_Image" data-name="Cyber Keepers (1) Image" xmlns="http://www.w3.org/2000/svg" viewBox="0 0 375 375">
  <defs>
    <style>
      .cls-1 {
        fill: #000c18;
      }

      .cls-2 {
        fill: #fff;
      }

      .cls-3 {
        fill: #fee205;
      }
    </style>
  </defs>
  <rect class="cls-1" width="377.76" height="377.76"/>
  <g>
    <path class="cls-3" d="M193.06,228.35c2.72,1.16,5.21,2.82,7.93,4,6,2.59,11.59,3.4,16.87,7.76,9.5,7.85,17.96,19.16,27.38,27.34,2.48,3.07-.93,6.44-4.31,3.91-8.46-6.31-17-18.21-25.4-25.42-6.36-5.45-12.79-5.88-19.9-9.42-2.71-1.35-5.17-3.28-7.93-4.55-.77-.06-6.87,3.81-8.26,4.49-7,3.45-13.77,4.21-19.84,9.48-8.95,7.78-16.85,17.88-25.85,25.74-2.74,2.2-6.5-1.66-3.85-4.24,9.42-8.2,17.88-19.47,27.38-27.34,5.38-4.46,10.76-5.14,16.87-7.76,10.33-4.43,21.74-13.19,25.64-24,4.04-11.19,1.92-18.27,10.46-28.63,9.6-11.65,37.61-28.35,23.22-45.91-.92-1.13-1.99-2.63-3.58-1.69l-40.38,40.15c-2.31,1.87-5.66-1.04-4.38-3.6l40.74-40.96c2.4-2.07,5.47-2.14,8.44-1.39l.76-.33c8.22-8.46,17.08-16.3,25.21-24.84,3.44-3.61,9.26-8.92,10.66-13.57,1.8-5.99,0-12.88-5.39-16.34-10.59,7.29-19.48,17.04-30.17,24.14-5.07-1.57-3.4-3.97-.53-6.74,6.18-5.97,18.4-16.4,25.46-21.06,3.98-2.63,6.2-3.42,10.31-.23,9.34,7.27,8.96,23.46.41,31.27l-31.28,31.28c-.33.54-.24,1.07-.12,1.65.45,2.31,2.23,5.56,2.86,8.11,4.27,17.27-9.16,23.71-18.59,34.99,7.51,10.3,14.53,21.04,22.88,30.69,12.81,14.81,29.66,27.71,42.04,42.4,1.49,1.77,3.64,3.86,1.14,5.85-1.51,1.2-3.18.62-4.46-.57-16.87-17.92-36.68-34.39-51.58-53.97-4.97-6.53-9.14-13.69-14.55-19.87-5.21,4.1-8.85,10.32-10.58,16.7-3,11.03-2.21,17.28-10.46,26.67-.94,1.07-4.81,4.17-5.1,4.67-.21.37-.25.75-.17,1.16Z"/>
    <path class="cls-3" d="M170.36,148.23l12.51-15.83-73.09-61.01h-.8c-6.91,5.9-7.1,15.19-1.36,22.12,1.68,2.04,7.09,6.22,7.47,8.58.27,1.64-1.89,3.34-3.46,3.08s-6.28-5.13-7.53-6.57c-5.37-6.2-7.94-12.82-5.86-21.12,1.29-5.17,6.81-13.83,13.12-11.94,1.49.45,7.86,5.55,9.55,6.87,21.57,16.92,41.47,36.13,62.96,53.14,1.17.93,2.32,1.93,3.69,2.58l35.05-29.11c3.5-1.87,6.57,2.01,3.62,4.79-17.97,15.29-36.22,28.19-50.54,47.19-11.34,15.04-21.75,30.81-33.15,45.82-15.65,20.61-34.64,37.55-52.7,55.98-2.43,2.8-6.98.95-5.5-2.76l39.7-40.04c9.88-11.02,18.58-23.01,27.12-35.08l-.32-1.1c-9.35-9.84-20.22-16.18-18.78-31.64.39-4.23,2.6-7.9,4.24-11.68l-15.96-15.7c-2.35-1.91-.96-6.07,2.06-5.59s14.55,14.53,17.88,16.95c3.63-.18,5.27-1.22,8.55,1.2,6.98,5.13,13.63,14.86,20.55,20.5l.98.38ZM166.4,152.6l-21.23-20.43c-2.65-1.23-5.64,4.85-6.38,6.97-2.47,7.06-.45,12.62,4.01,18.09,3.48,4.28,7.78,7.92,11.54,11.94.76.45,1.27-.52,1.72-1.04,1.98-2.27,8.75-11.44,9.94-13.91.23-.47.7-1.13.4-1.64Z"/>
    <path class="cls-2" d="M105.47,309.68v-19.55h9.58c1.04,0,3.44,2.04,3.91,3.13,1.42,3.3-1.07,4.85-.93,5.61.05.3,1.34,1.52,1.68,2.25,1.22,2.69.43,5.63-1.91,7.39-.29.22-1.84,1.17-1.95,1.17h-10.36ZM115.58,294.49l-5.81-.45v3.13s5.5-.17,5.5-.17l.31-2.51ZM109.77,305.78c2.11-.26,6.07,1.03,6.59-1.86.67-3.77-4.26-2.77-6.59-2.84v4.7Z"/>
    <path class="cls-2" d="M287.84,290.14c5.34.95,5.87,9.23.98,11.53l6.25,8.01c-1.37-.18-3.46.36-4.69-.2-1.42-.65-4.3-6.28-5.65-7.25-.69-.5-1.4-.39-2.18-.36v7.82h-4.3v-19.55c2.88.36,6.85-.48,9.58,0ZM287.55,294.53c-.86-.86-3.77-.35-4.99-.49v3.91c1.71-.18,5.35.84,5.45-1.79.02-.5-.11-1.29-.46-1.64Z"/>
    <path class="cls-2" d="M154.53,290.14c5.12.85,6.26,9.03,1.4,10.99l5.83,8.56c-1.21-.2-3.73.39-4.69-.2-1.29-.79-4-5.92-5.44-7.07-.79-.63-1.37-.65-2.38-.55v7.82c-1.02-.17-3.86.52-4.25-.64l.34-18.9c2.8.33,6.52-.44,9.19,0ZM149.26,297.96c7.7,1.25,7.65-5.14,0-3.91v3.91Z"/>
    <path class="cls-2" d="M183.66,290.14v7.43c2.2-2.05,4.38-4.08,6.67-6.04.41-.35.67-1.21.83-1.3.76-.45,3.88.14,5-.08.18.68-.28.78-.58,1.17-.99,1.29-7.73,7.19-7.6,7.96l8.97,10.21c-1.21.23-3.6.49-4.69,0-1.6-.73-6.36-7.49-6.86-7.62-.46-.09-1.75,1.26-1.75,1.37v6.45h-4.3v-19.55h4.3Z"/>
    <polygon class="cls-2" points="214.93 290.14 214.93 294.05 207.11 294.05 207.11 297.17 214.15 297.17 214.15 301.08 207.11 301.08 207.11 305.77 214.93 305.77 214.93 309.68 202.81 309.68 202.81 290.14 214.93 290.14"/>
    <path class="cls-2" d="M233.7,290.14l-.39,3.91h-7.82v3.13h7.04v3.91h-7.04v4.69h7.82v3.91h-11.53c-.21,0-.62-.66-.61-.99l.02-18.56h12.51Z"/>
    <path class="cls-2" d="M272.01,290.14l-.39,3.91h-7.82v3.13h7.04v3.91h-7.04v4.69h8.21l-.39,3.91h-11.53c-.17,0-.66-.61-.57-.94l.37-18.61h12.12Z"/>
    <path class="cls-2" d="M138.7,290.14l-.39,3.91h-7.82v3.13h7.04v3.91h-7.04v4.69h7.82v3.91h-11.53c-.21,0-.62-.66-.61-.99l.41-18.56h12.12Z"/>
    <path class="cls-2" d="M244.25,301.87v7.82c-1.02-.17-3.86.52-4.25-.64l.34-18.9h9.19c.58,0,2.86,1.58,3.33,2.14,2.01,2.43,1.46,6.48-.98,8.41-.28.22-1.84,1.17-1.95,1.17h-5.67ZM244.25,297.96c7.59,1.29,7.58-5.21,0-3.91v3.91Z"/>
    <path class="cls-2" d="M300.93,305l3.35-1.19c.79-.03.79.92,1.24,1.19,2.14,1.32,4.95,1.14,5.99-1.38,0-1.77-7.21-1.86-9.18-4.51-5.21-7.03,8.52-12.87,12.67-5.64l-2.93,2.17c-2.19-1.89-5.43-2.64-6.71.57,0,2.94,9.38,1.6,10.33,6.35,1.58,7.89-12.77,9.98-14.77,2.45Z"/>
    <path class="cls-2" d="M73.38,295.58c-2.11-.72-3.13-1.87-5.6-1.51-9,1.31-3.26,17.96,6.17,9.4l2.03,1.92c.56,1.08-2.73,3.1-3.59,3.47-8.79,3.79-16.29-5.92-11.96-13.91,3.02-5.57,10.62-6.52,14.93-1.87l-1.99,2.51Z"/>
    <path class="cls-2" d="M88.66,300.11l-6.64-9.97c1.32.19,3.55-.37,4.69.19.91.45,3.72,5.66,4.1,5.66l4.1-5.66,4.69-.19c.55.48-6.64,9.53-6.64,10.36v9.19h-4.3v-9.58Z"/>
  </g>
</svg>