<?xml version="1.0"?><svg version="1.2" baseProfile="tiny-ps" viewBox="0 0 300 300" xmlns="http://www.w3.org/2000/svg" xmlns:xlink="http://www.w3.org/1999/xlink"><title>Cyber Keepers</title><g><g fill="#fcfcfc" transform="matrix(.1 0 0 -.1 0 300)"><path d="M0 1500V0h3000v3000H0V1500z"/></g><g fill="#fde104" transform="matrix(.1 0 0 -.1 0 300)"><path d="M0 1500V0h3000v3000H0V1500zm588-829 4-13-30 6-30 7-16-16c-19-19-20-38-5-67l11-20 39 6 39 6v-8c0-5-12-14-27-21l-26-12-27 11-27 11-12 25c-16 35-14 48 10 78l21 27 36-3 35-3 5-14zm117-3 16-23 16 23c15 21 43 31 43 15 0-5-9-19-20-33l-20-25v-85h-30v72l-18 26c-10 15-22 33-26 40l-7 12h30l16-22zm230 12c3-6 8-35 11-65l4-54-19-11c-11-5-36-10-55-10h-36v150h89l6-10zm165 1v-10l-32-3-31-3-5-12-4-13h62v-30h-60v-40h70v-30h-90v150h90v-9zm154-13 10-17-13-25-14-25 22-28 22-28-12-4-13-4-29 37-29 36-9-6c-5-3-9-19-9-35v-31l-12 5-13 4 1 16c0 10 1 42 2 73l2 55 41-3 42-3 11-17zm206-5v-27l28 27 28 27h38l-32-33-32-33 36-42 36-42h-14c-8 0-27 14-43 30-35 37-43 37-47 3l-3-26-12-5-13-4v152h30v-27zm240 17v-10h-60v-30h60v-30h-60v-40h60v-30h-90v150h90v-10zm150 0v-10h-60v-30h50v-30h-50v-40h60v-30h-90v150h90v-10zm155-30v-35l-32-3-33-3v-69h-30v151l48-3 47-3v-35zm155 30v-10h-70v-30h60v-30h-60v-40h72l-4-12-5-13-38-3-38-3-8 8-7 8 5 68 6 67h87v-10zm148-2c16-16 15-43-3-58l-15-13 25-33 26-34h-30l-27 35-26 35-9-6c-5-3-9-18-9-35v-29h-30v150h86l12-12zm180-7 5-14-26 6-25 7-12-15-12-15 27-10c14-5 30-10 35-10s14-8 19-19l10-18-12-16c-7-9-24-19-38-22l-25-6-25 21-24 21 43-6 42-7v30l-35 12-35 12v22c0 12 6 28 12 34l13 13 29-3 29-3 5-14zM870 655v-15h50v9c0 9-24 21-41 21-5 0-9-7-9-15zm0-65v-21l28 3 27 3v30l-27 3-28 3v-21zm310 60v-21l23 3 22 3v30l-22 3-23 3v-21zm760 0v-20h19c11 0 23 5 27 11l7 11-14 9c-8 5-20 9-26 9h-13v-20zm300 0v-21l23 3 22 3v30l-22 3-23 3v-21z"/></g><g fill="#9fa3a8" transform="matrix(.1 0 0 -.1 0 300)"><path d="M0 1500V0h3000v3000H0V1500zm939 938c31-23 150-123 266-223 115-99 227-193 247-209l38-28 139 116 139 116h32v-28l-139-116c-170-141-222-198-364-396-61-85-138-191-171-235l-60-80-180-183-179-182h-37v12c0 7 85 98 188 202l188 191 77 104c42 57 77 109 77 115s-25 36-56 66l-57 54-18 40c-23 51-24 88-3 146l16 46-66 64c-65 62-77 82-55 96l11 6 67-66 67-66h50l31-22c18-13 60-54 94-91s65-67 69-65c15 6 102 118 98 127-2 5-133 118-293 251l-289 242-18-22c-24-30-32-63-24-104l6-34 40-45c22-25 40-50 40-56v-11h-36l-26 28c-14 15-35 43-47 62l-21 35v87l16 34c17 37 49 64 73 64 8 0 39-19 70-42zm1215 17c48-44 59-113 31-183l-16-37-136-136-136-137 17-48c32-93 18-134-77-232l-62-62 14-23c7-12 39-58 70-102l56-80 197-201c109-111 198-206 198-211 0-6-6-13-14-16l-14-6-199 202-199 202-68 98c-38 53-72 97-76 97-13 0-59-66-74-106-8-22-20-64-27-94-15-70-39-117-78-154-17-17-31-33-31-36 0-4 24-17 53-30 28-13 75-34 103-47l52-23 106-114c58-63 106-119 106-125v-11h-34l-115 118-116 118-40 13c-22 7-66 26-98 42l-58 29-57-29c-31-15-75-34-97-41l-40-13-122-120-122-119-10 7c-6 3-11 10-11 14 0 5 53 62 118 128l117 121 58 21c118 43 183 88 238 164l28 39 17 76c9 42 25 94 36 116l19 38 94 92 93 91 21 42 21 42v58l-22 33c-13 19-27 33-33 31-5-1-84-73-174-159-91-86-169-157-174-157-6 0-12 5-14 10l-3 11 174 173 175 174 22-6 23-6 119 117c66 64 132 135 148 156l29 39v69l-17 29-17 29h-32l-107-90c-59-49-114-90-122-90h-15v28l58 53c31 28 86 74 121 101l64 48h17c9 0 29-11 44-25zM588 671l4-13-30 6-30 7-16-16c-19-19-20-38-5-67l11-20 39 6 39 6v-8c0-5-12-14-27-21l-26-12-27 11-27 11-12 25c-16 35-14 48 10 78l21 27 36-3 35-3 5-14zm117-3 16-23 16 23c15 21 43 31 43 15 0-5-9-19-20-33l-20-25v-85h-30v72l-18 26c-10 15-22 33-26 40l-7 12h30l16-22zm230 12c3-6 8-35 11-65l4-54-19-11c-11-5-36-10-55-10h-36v150h89l6-10zm165 1v-10l-32-3-31-3-5-12-4-13h62v-30h-60v-40h70v-30h-90v150h90v-9zm154-13 10-17-13-25-14-25 22-28 22-28-12-4-13-4-29 37-29 36-9-6c-5-3-9-19-9-35v-31l-12 5-13 4 1 16c0 10 1 42 2 73l2 55 41-3 42-3 11-17zm206-5v-27l28 27 28 27h38l-32-33-32-33 36-42 36-42h-14c-8 0-27 14-43 30-35 37-43 37-47 3l-3-26-12-5-13-4v152h30v-27zm240 17v-10h-60v-30h60v-30h-60v-40h60v-30h-90v150h90v-10zm150 0v-10h-60v-30h50v-30h-50v-40h60v-30h-90v150h90v-10zm155-30v-35l-32-3-33-3v-69h-30v151l48-3 47-3v-35zm155 30v-10h-70v-30h60v-30h-60v-40h72l-4-12-5-13-38-3-38-3-8 8-7 8 5 68 6 67h87v-10zm148-2c16-16 15-43-3-58l-15-13 25-33 26-34h-30l-27 35-26 35-9-6c-5-3-9-18-9-35v-29h-30v150h86l12-12zm180-7 5-14-26 6-25 7-12-15-12-15 27-10c14-5 30-10 35-10s14-8 19-19l10-18-12-16c-7-9-24-19-38-22l-25-6-25 21-24 21 43-6 42-7v30l-35 12-35 12v22c0 12 6 28 12 34l13 13 29-3 29-3 5-14zM1115 1927c-8-13-18-37-21-54l-6-31 11-35 12-35 58-63 58-63 46 59 47 60v33l-82 76c-46 42-89 76-95 76-7 0-19-10-28-23zM870 655v-15h50v9c0 9-24 21-41 21-5 0-9-7-9-15zm0-65v-21l28 3 27 3v30l-27 3-28 3v-21zm310 60v-21l23 3 22 3v30l-22 3-23 3v-21zm760 0v-20h19c11 0 23 5 27 11l7 11-14 9c-8 5-20 9-26 9h-13v-20zm300 0v-21l23 3 22 3v30l-22 3-23 3v-21z"/></g><g fill="#b1a10a" transform="matrix(.1 0 0 -.1 0 300)"><path d="M0 1500V0h3000v3000H0V1500zm939 938c31-23 150-123 266-223 115-99 227-193 247-209l38-28 139 116 139 116h32v-28l-139-116c-170-141-222-198-364-396-61-85-138-191-171-235l-60-80-180-183-179-182h-37v12c0 7 85 98 188 202l188 191 77 104c42 57 77 109 77 115s-25 36-56 66l-57 54-18 40c-23 51-24 88-3 146l16 46-66 64c-65 62-77 82-55 96l11 6 67-66 67-66h50l31-22c18-13 60-54 94-91s65-67 69-65c15 6 102 118 98 127-2 5-133 118-293 251l-289 242-18-22c-24-30-32-63-24-104l6-34 40-45c22-25 40-50 40-56v-11h-36l-26 28c-14 15-35 43-47 62l-21 35v87l16 34c17 37 49 64 73 64 8 0 39-19 70-42zm1215 17c48-44 59-113 31-183l-16-37-136-136-136-137 17-48c32-93 18-134-77-232l-62-62 14-23c7-12 39-58 70-102l56-80 197-201c109-111 198-206 198-211 0-6-6-13-14-16l-14-6-199 202-199 202-68 98c-38 53-72 97-76 97-13 0-59-66-74-106-8-22-20-64-27-94-15-70-39-117-78-154-17-17-31-33-31-36 0-4 24-17 53-30 28-13 75-34 103-47l52-23 106-114c58-63 106-119 106-125v-11h-34l-115 118-116 118-40 13c-22 7-66 26-98 42l-58 29-57-29c-31-15-75-34-97-41l-40-13-122-120-122-119-10 7c-6 3-11 10-11 14 0 5 53 62 118 128l117 121 58 21c118 43 183 88 238 164l28 39 17 76c9 42 25 94 36 116l19 38 94 92 93 91 21 42 21 42v58l-22 33c-13 19-27 33-33 31-5-1-84-73-174-159-91-86-169-157-174-157-6 0-12 5-14 10l-3 11 174 173 175 174 22-6 23-6 119 117c66 64 132 135 148 156l29 39v69l-17 29-17 29h-32l-107-90c-59-49-114-90-122-90h-15v28l58 53c31 28 86 74 121 101l64 48h17c9 0 29-11 44-25zM574 690l26-9-6-15-6-14-33 5-33 5-12-22-11-21 16-26 17-25 16 5c10 2 24 6 32 8l15 4v-30l-28-9-28-10-27 15-27 15-9 27-10 27 10 27 9 28 25 12c30 15 32 15 64 3zm129-12 15-23 24 23c23 20 48 29 48 16 0-3-11-22-25-42l-25-37v-75h-40v82l-18 26c-10 15-22 33-26 40l-7 12h39l15-22zm232 2 17-19-6-16-6-16 11-20 10-20-16-25-15-24h-90v160h77l18-20zm165 0v-20h-60v-20h50v-30h-50v-40h60v-30h-100v73c0 41 3 77 7 80 3 4 26 7 50 7h43v-20zm141 10 19-11v-58l-10-6-10-6 20-29c25-35 25-40 1-40h-20l-18 30c-9 17-21 30-25 30s-8-13-8-30v-30h-40v73c0 41 3 77 7 80 10 11 62 8 84-3zm219-22v-32l33 32 33 32h38l-32-33c-18-18-32-37-32-41 0-5 14-25 32-45l32-36-19-4-19-3-26 31c-33 39-40 39-40 1v-30h-40v73c0 76 4 87 27 87h13v-32zm248 15-3-18-28-3-27-3v-19h50v-30h-50v-40h60v-30h-100v160h101l-3-17zm145 11c3-3 3-12 0-20l-5-14h-58v-20h60v-30h-60v-40h60v-30h-90v160h43c24 0 46-3 50-6zm149-11c22-20 23-41 1-65l-16-18h-47v-60h-30v160h73l19-17zm156 0-3-18-28-3-27-3v-19h50v-30h-50v-40h60v-30h-100v73c0 41 3 77 7 80 3 4 26 7 50 7h44l-3-17zm143 7 19-11v-27c0-16-5-33-11-39l-12-12 23-28 22-28-17-4-18-3-26 33-26 33-5-29-5-30-18-3-17-3v161h36c19 0 44-5 55-10zm185-5 19-15-13-8-13-9-26 5-26 5 5-13 4-13 34-11 35-11 3-18 4-18-18-20-17-19h-53l-20 15-19 15 15 9 14 10 13-11 13-10 15 6c24 9 17 24-14 31-16 3-35 13-41 20l-12 14 4 18 3 17 25 13c32 16 42 16 66-2zM1115 1927c-8-13-18-37-21-54l-6-31 11-35 12-35 58-63 58-63 46 59 47 60v33l-82 76c-46 42-89 76-95 76-7 0-19-10-28-23zM870 650v-10h19c11 0 23 5 26 10l6 10h-51v-10zm0-61v-20l22 3 23 3 3 18 3 17h-51v-21zm320 56c0-17 2-18 24-9 23 9 20 24-4 24h-20v-15zm753 9c-7-19 2-28 22-21 19 8 19 23 0 31l-16 6-6-16zm307-9c0-17 2-18 24-9 23 9 20 24-4 24h-20v-15z"/></g><g fill="#50522b" transform="matrix(.1 0 0 -.1 0 300)"><path d="M0 1500V0h3000v3000H0V1500zm951 931c35-26 131-106 213-177 216-187 309-263 323-264 6 0 54 35 105 78s115 95 141 116l48 39 14-14 14-14-7-10c-4-6-61-56-127-112s-152-134-192-175l-71-73-149-207c-81-113-187-250-235-305-108-122-321-333-337-333-6 0-14 7-18 15l-5 16 179 182 179 182 88 118 88 118-61 64-62 64-14 35-15 35v82l15 36 16 37-66 66-65 66v34h36l64-65 64-65h61l81-85c45-47 86-85 92-85s31 26 56 57l45 57-9 12c-23 27-562 469-572 469-7 0-20-15-31-33l-19-32 7-36 6-36 40-43 39-42v-33h-38l-35 39c-19 22-41 49-47 62l-12 22v94l12 24c7 13 22 34 33 47l20 22h44l64-49zm1206 27c11-13 26-33 32-45l11-22v-102l-11-22c-6-12-74-85-150-162l-140-141 16-43c8-24 15-61 15-83v-39l-17-32c-9-18-43-60-75-93l-59-62 77-109 78-108 189-187 188-188-3-17-3-18-16-3-16-3-189 194-189 193-69 97c-37 53-73 100-78 103l-9 6-21-19c-30-27-54-80-72-163l-17-75-24-42c-14-22-37-50-52-61l-27-20 50-24c27-14 67-31 89-38l40-13 123-120 122-120v-37h-36l-113 115-114 115-56 21c-31 11-75 31-98 44l-43 24-42-24c-24-13-70-34-103-46l-60-22-110-114-110-113h-35v36l122 121 123 120 40 13c108 34 202 99 246 168l28 45 17 76c9 42 23 89 32 106 8 16 63 80 123 141l108 112 11 41 11 41-20 45-20 45h-26l-160-160-160-160h-35v36l168 167 168 167h60l137 136 137 135 11 39 12 38-19 38c-11 21-24 39-30 41l-11 4-49-40c-27-22-80-65-118-96l-68-56-13 11-14 11 5 14c6 16 150 139 206 178l41 27h44l20-22zM574 690l26-9-6-15-6-14-33 5-33 5-12-22-11-21 16-26 17-25 16 5c10 2 24 6 32 8l15 4v-30l-28-9-28-10-27 15-27 15-9 27-10 27 10 27 9 28 25 12c30 15 32 15 64 3zm129-12 15-23 24 23c23 20 48 29 48 16 0-3-11-22-25-42l-25-37v-75h-40v82l-18 26c-10 15-22 33-26 40l-7 12h39l15-22zm232 2 17-19-6-16-6-16 11-20 10-20-16-25-15-24h-90v160h77l18-20zm165 0v-20h-60v-20h50v-30h-50v-40h60v-30h-100v73c0 41 3 77 7 80 3 4 26 7 50 7h43v-20zm141 10 19-11v-58l-10-6-10-6 20-29c25-35 25-40 1-40h-20l-18 30c-9 17-21 30-25 30s-8-13-8-30v-30h-40v73c0 41 3 77 7 80 10 11 62 8 84-3zm219-22v-32l33 32 33 32h38l-32-33c-18-18-32-37-32-41 0-5 14-25 32-45l32-36-19-4-19-3-26 31c-33 39-40 39-40 1v-30h-40v73c0 76 4 87 27 87h13v-32zm248 15-3-18-28-3-27-3v-19h50v-30h-50v-40h60v-30h-100v160h101l-3-17zm145 11c3-3 3-12 0-20l-5-14h-58v-20h60v-30h-60v-40h60v-30h-90v160h43c24 0 46-3 50-6zm149-11c22-20 23-41 1-65l-16-18h-47v-60h-30v160h73l19-17zm156 0-3-18-28-3-27-3v-19h50v-30h-50v-40h60v-30h-100v73c0 41 3 77 7 80 3 4 26 7 50 7h44l-3-17zm143 7 19-11v-27c0-16-5-33-11-39l-12-12 23-28 22-28-17-4-18-3-26 33-26 33-5-29-5-30-18-3-17-3v161h36c19 0 44-5 55-10zm185-5 19-15-13-8-13-9-26 5-26 5 5-13 4-13 34-11 35-11 3-18 4-18-18-20-17-19h-53l-20 15-19 15 15 9 14 10 13-11 13-10 15 6c24 9 17 24-14 31-16 3-35 13-41 20l-12 14 4 18 3 17 25 13c32 16 42 16 66-2zM1117 1923c-8-16-17-41-21-56l-7-28 20-42 19-42 50-49 50-48 10 6c5 3 26 30 48 61l38 56-84 84c-47 47-90 85-97 85h-12l-14-27zM870 650v-10h19c11 0 23 5 26 10l6 10h-51v-10zm0-61v-20l22 3 23 3 3 18 3 17h-51v-21zm320 56c0-17 2-18 24-9 23 9 20 24-4 24h-20v-15zm753 9c-7-19 2-28 22-21 19 8 19 23 0 31l-16 6-6-16zm307-9c0-17 2-18 24-9 23 9 20 24-4 24h-20v-15z"/></g><g fill="#040e18" transform="matrix(.1 0 0 -.1 0 300)"><path d="M0 1500V0h3000v3000H0V1500zm985 908c50-39 155-129 235-198 163-142 259-220 268-220 4 0 69 52 145 116l138 115 17-3 17-3 3-16 3-16-133-110c-173-143-239-214-377-408-63-88-143-198-179-245l-66-85-175-177-175-178h-34l-5 13-5 13 81 84c45 47 131 137 192 200l111 115 77 104 77 104-69 72-68 72-12 50-12 49 14 40c8 21 17 46 21 55l7 15-71 67c-38 37-70 71-70 76s7 14 16 21l15 13 72-71 72-72h62l84-85c46-47 87-84 90-83 4 2 27 28 52 59l46 56-291 243-291 243-19-23-18-22v-40c0-48 11-72 58-121l36-37-17-17-17-17-27 20c-16 11-43 45-60 74l-33 54v33c0 41 21 94 49 122l21 21h55l90-72zm1179 46 26-27 11-41 11-41-11-45-12-45-142-142-141-143 16-62 17-63-8-37c-10-44-34-77-100-142l-50-49 31-46c18-25 59-82 91-125l60-79 174-171 173-171v-45h-36l-186 188-186 187-77 105-76 105h-24l-31-52-31-53-13-62c-16-85-31-118-75-167-21-23-35-44-32-47s38-19 79-35c100-41 128-62 241-184l99-106-12-14-12-15-29 17c-16 10-68 60-116 112l-87 94-56 24c-30 13-79 35-108 50l-53 26-52-26c-29-14-74-35-102-47l-50-21-118-116-118-117-16 16-16 17 99 106c107 115 156 155 219 175 67 21 116 50 167 98l50 47 19 37c11 21 26 69 34 108s20 81 27 93c6 12 57 69 113 127s109 119 119 137l16 32v80l-24 28-25 28-169-168-169-169-17 18-18 17 174 174 173 173h60l132 133c72 72 136 142 142 154s11 38 11 58v36l-16 24c-9 14-19 25-23 25s-45-32-92-71c-46-40-98-82-115-95l-31-24-17 6c-9 3-16 12-16 19v13l73 64c39 36 94 81 121 101l49 37h54l27-26zM586 686l19-14-8-9c-5-4-25-8-45-8h-37l-3-30-4-29 17-12 17-13 25 10 25 9 9-6 10-6-17-19-17-19h-61l-23 22-23 21v76l26 20 27 21h21c12 0 31-6 42-14zm119-8 16-23 16 23 15 22h19c25 0 24-8-6-52l-25-37v-71h-40v75l-25 37c-30 44-31 48-6 48h20l16-22zm230 9 18-14-5-27-5-26 8-6c14-8 10-41-7-58l-15-16h-99v160h86l19-13zm165-7v-20h-60v-20h61l-3-17-3-18-28-3-27-3v-19h60v-40h-100v160h100v-20zm155-4 16-24-12-25-11-25 21-31 22-31h-46l-27 32-27 33-1-32v-33h-40v160h90l15-24zm207-2 3-26 28 26 28 26h20c26 0 24-9-13-47l-32-33 32-33c37-38 39-47 13-47h-19l-25 29c-27 32-37 31-37-6v-23h-40v160h39l3-26zm248 6v-20h-60v-20h50v-40h-50v-19l27-3 28-3 3-17 3-18h-101v160h100v-20zm150 0v-20h-70v-20h61l-3-17-3-18-28-3c-15-2-27-7-27-12v-9l32-3 33-3 3-17 3-18h-111v160h110v-20zm144 4 16-15v-23c0-12-5-27-12-34l-12-12h-56v-60h-40v73c0 41 3 77 7 80 3 4 23 7 44 7h38l15-16zm156-4v-20h-60v-20h50v-40h-50v-20h60v-40h-100v160h100v-20zm148 8c15-15 16-60 2-74l-11-11 21-25c25-32 25-38 3-38h-18l-27 32-27 33-1-32v-33h-40v160h86l12-12zm182-3 12-14-7-10-6-10-29 6-30 6v-10c0-6 18-17 40-26l40-15v-51l-19-11c-11-5-33-10-49-10h-30l-12 15-12 14 7 11 7 11 36-7 37-7-7 8c-3 4-21 14-40 23l-33 17-3 22-3 21 23 16c12 9 32 16 44 16h22l12-15zM1126 1932c-8-10-19-32-22-50l-6-31 6-35 6-34 60-63 59-64 18 24c10 13 30 42 46 65l28 40-53 54c-29 29-69 67-89 83l-36 29-17-18zM880 650c0-5 7-10 15-10s15 5 15 10c0 6-7 10-15 10s-15-4-15-10zm0-54c0-20 13-27 29-16l14 8-7 11c-4 6-14 11-22 11h-14v-14zm310 54v-10h40v20h-40v-10zm750 0v-10h40v20h-40v-10zm310 0c0-5 7-10 15-10s15 5 15 10c0 6-7 10-15 10s-15-4-15-10z"/></g></g></svg>
